<svg xmlns="http://www.w3.org/2000/svg" xmlns:xlink="http://www.w3.org/1999/xlink" width="1500" zoomAndPan="magnify" viewBox="0 0 1125 374.999991" height="500" preserveAspectRatio="xMidYMid meet" version="1.0"><defs><g/></defs><g fill="#424242" fill-opacity="1"><g transform="translate(-1.727224, 234.926949)"><g><path d="M 50.125 1.171875 C 42.382812 1.171875 35.457031 -0.195312 29.34375 -2.9375 C 23.238281 -5.6875 18.445312 -9.5 14.96875 -14.375 C 11.488281 -19.257812 9.695312 -24.894531 9.59375 -31.28125 L 25.90625 -31.28125 C 26.46875 -25.789062 28.738281 -21.164062 32.71875 -17.40625 C 36.695312 -13.65625 42.5 -11.78125 50.125 -11.78125 C 57.414062 -11.78125 63.160156 -13.597656 67.359375 -17.234375 C 71.566406 -20.878906 73.671875 -25.5625 73.671875 -31.28125 C 73.671875 -35.769531 72.4375 -39.414062 69.96875 -42.21875 C 67.5 -45.019531 64.414062 -47.148438 60.71875 -48.609375 C 57.019531 -50.066406 52.03125 -51.640625 45.75 -53.328125 C 38.007812 -55.335938 31.8125 -57.351562 27.15625 -59.375 C 22.507812 -61.394531 18.53125 -64.5625 15.21875 -68.875 C 11.914062 -73.195312 10.265625 -79 10.265625 -86.28125 C 10.265625 -92.675781 11.890625 -98.335938 15.140625 -103.265625 C 18.390625 -108.203125 22.957031 -112.015625 28.84375 -114.703125 C 34.726562 -117.398438 41.484375 -118.75 49.109375 -118.75 C 60.097656 -118.75 69.097656 -116 76.109375 -110.5 C 83.117188 -105.007812 87.070312 -97.722656 87.96875 -88.640625 L 71.15625 -88.640625 C 70.59375 -93.128906 68.234375 -97.082031 64.078125 -100.5 C 59.929688 -103.914062 54.4375 -105.625 47.59375 -105.625 C 41.207031 -105.625 35.992188 -103.96875 31.953125 -100.65625 C 27.921875 -97.351562 25.90625 -92.734375 25.90625 -86.796875 C 25.90625 -82.535156 27.109375 -79.054688 29.515625 -76.359375 C 31.929688 -73.671875 34.90625 -71.625 38.4375 -70.21875 C 41.96875 -68.820312 46.929688 -67.226562 53.328125 -65.4375 C 61.054688 -63.300781 67.273438 -61.195312 71.984375 -59.125 C 76.703125 -57.050781 80.738281 -53.851562 84.09375 -49.53125 C 87.457031 -45.21875 89.140625 -39.359375 89.140625 -31.953125 C 89.140625 -26.234375 87.625 -20.847656 84.59375 -15.796875 C 81.570312 -10.753906 77.085938 -6.664062 71.140625 -3.53125 C 65.203125 -0.394531 58.195312 1.171875 50.125 1.171875 Z M 50.125 1.171875 "/></g></g></g><g fill="#424242" fill-opacity="1"><g transform="translate(107.269092, 234.926949)"><g><path d="M 31.625 -79.5625 L 31.625 -25.234375 C 31.625 -20.742188 32.578125 -17.570312 34.484375 -15.71875 C 36.390625 -13.875 39.695312 -12.953125 44.40625 -12.953125 L 55.671875 -12.953125 L 55.671875 0 L 41.875 0 C 33.351562 0 26.960938 -1.960938 22.703125 -5.890625 C 18.441406 -9.816406 16.3125 -16.265625 16.3125 -25.234375 L 16.3125 -79.5625 L 4.375 -79.5625 L 4.375 -92.171875 L 16.3125 -92.171875 L 16.3125 -115.390625 L 31.625 -115.390625 L 31.625 -92.171875 L 55.671875 -92.171875 L 55.671875 -79.5625 Z M 31.625 -79.5625 "/></g></g></g><g fill="#424242" fill-opacity="1"><g transform="translate(178.756723, 234.926949)"><g><path d="M 7.234375 -46.421875 C 7.234375 -55.835938 9.140625 -64.109375 12.953125 -71.234375 C 16.765625 -78.359375 22.003906 -83.878906 28.671875 -87.796875 C 35.347656 -91.722656 42.78125 -93.6875 50.96875 -93.6875 C 59.039062 -93.6875 66.046875 -91.945312 71.984375 -88.46875 C 77.929688 -85 82.363281 -80.628906 85.28125 -75.359375 L 85.28125 -92.171875 L 100.75 -92.171875 L 100.75 0 L 85.28125 0 L 85.28125 -17.15625 C 82.25 -11.769531 77.734375 -7.3125 71.734375 -3.78125 C 65.734375 -0.25 58.753906 1.515625 50.796875 1.515625 C 42.609375 1.515625 35.207031 -0.5 28.59375 -4.53125 C 21.976562 -8.570312 16.765625 -14.238281 12.953125 -21.53125 C 9.140625 -28.820312 7.234375 -37.117188 7.234375 -46.421875 Z M 85.28125 -46.25 C 85.28125 -53.207031 83.878906 -59.265625 81.078125 -64.421875 C 78.273438 -69.578125 74.488281 -73.53125 69.71875 -76.28125 C 64.957031 -79.03125 59.71875 -80.40625 54 -80.40625 C 48.28125 -80.40625 43.0625 -79.054688 38.34375 -76.359375 C 33.632812 -73.671875 29.878906 -69.75 27.078125 -64.59375 C 24.273438 -59.4375 22.875 -53.378906 22.875 -46.421875 C 22.875 -39.359375 24.273438 -33.21875 27.078125 -28 C 29.878906 -22.789062 33.632812 -18.8125 38.34375 -16.0625 C 43.0625 -13.3125 48.28125 -11.9375 54 -11.9375 C 59.71875 -11.9375 64.957031 -13.3125 69.71875 -16.0625 C 74.488281 -18.8125 78.273438 -22.789062 81.078125 -28 C 83.878906 -33.21875 85.28125 -39.300781 85.28125 -46.25 Z M 85.28125 -46.25 "/></g></g></g><g fill="#424242" fill-opacity="1"><g transform="translate(302.722893, 234.926949)"><g><path d="M 28.265625 -77.203125 C 30.953125 -82.472656 34.789062 -86.566406 39.78125 -89.484375 C 44.769531 -92.398438 50.851562 -93.859375 58.03125 -93.859375 L 58.03125 -78.046875 L 54 -78.046875 C 36.84375 -78.046875 28.265625 -68.738281 28.265625 -50.125 L 28.265625 0 L 12.953125 0 L 12.953125 -92.171875 L 28.265625 -92.171875 Z M 28.265625 -77.203125 "/></g></g></g><g fill="#424242" fill-opacity="1"><g transform="translate(375.72433, 234.926949)"><g><path d="M 31.625 -79.5625 L 31.625 -25.234375 C 31.625 -20.742188 32.578125 -17.570312 34.484375 -15.71875 C 36.390625 -13.875 39.695312 -12.953125 44.40625 -12.953125 L 55.671875 -12.953125 L 55.671875 0 L 41.875 0 C 33.351562 0 26.960938 -1.960938 22.703125 -5.890625 C 18.441406 -9.816406 16.3125 -16.265625 16.3125 -25.234375 L 16.3125 -79.5625 L 4.375 -79.5625 L 4.375 -92.171875 L 16.3125 -92.171875 L 16.3125 -115.390625 L 31.625 -115.390625 L 31.625 -92.171875 L 55.671875 -92.171875 L 55.671875 -79.5625 Z M 31.625 -79.5625 "/></g></g></g><g fill="#424242" fill-opacity="1"><g transform="translate(447.211989, 234.926949)"><g><path d="M 94.703125 -92.171875 L 94.703125 0 L 79.390625 0 L 79.390625 -13.625 C 76.472656 -8.914062 72.40625 -5.242188 67.1875 -2.609375 C 61.976562 0.0234375 56.234375 1.34375 49.953125 1.34375 C 42.773438 1.34375 36.328125 -0.140625 30.609375 -3.109375 C 24.890625 -6.078125 20.375 -10.535156 17.0625 -16.484375 C 13.757812 -22.429688 12.109375 -29.664062 12.109375 -38.1875 L 12.109375 -92.171875 L 27.25 -92.171875 L 27.25 -40.203125 C 27.25 -31.117188 29.546875 -24.132812 34.140625 -19.25 C 38.742188 -14.375 45.023438 -11.9375 52.984375 -11.9375 C 61.171875 -11.9375 67.617188 -14.457031 72.328125 -19.5 C 77.035156 -24.550781 79.390625 -31.898438 79.390625 -41.546875 L 79.390625 -92.171875 Z M 94.703125 -92.171875 "/></g></g></g><g fill="#424242" fill-opacity="1"><g transform="translate(565.122913, 234.926949)"><g><path d="M 28.265625 -75.1875 C 31.285156 -80.457031 35.796875 -84.859375 41.796875 -88.390625 C 47.796875 -91.921875 54.773438 -93.6875 62.734375 -93.6875 C 70.921875 -93.6875 78.347656 -91.722656 85.015625 -87.796875 C 91.691406 -83.878906 96.9375 -78.359375 100.75 -71.234375 C 104.5625 -64.109375 106.46875 -55.835938 106.46875 -46.421875 C 106.46875 -37.117188 104.5625 -28.820312 100.75 -21.53125 C 96.9375 -14.238281 91.691406 -8.570312 85.015625 -4.53125 C 78.347656 -0.5 70.921875 1.515625 62.734375 1.515625 C 54.890625 1.515625 47.96875 -0.25 41.96875 -3.78125 C 35.96875 -7.3125 31.398438 -11.710938 28.265625 -16.984375 L 28.265625 43.734375 L 12.953125 43.734375 L 12.953125 -92.171875 L 28.265625 -92.171875 Z M 90.828125 -46.421875 C 90.828125 -53.378906 89.425781 -59.4375 86.625 -64.59375 C 83.820312 -69.75 80.035156 -73.671875 75.265625 -76.359375 C 70.503906 -79.054688 65.265625 -80.40625 59.546875 -80.40625 C 53.941406 -80.40625 48.753906 -79.03125 43.984375 -76.28125 C 39.222656 -73.53125 35.410156 -69.546875 32.546875 -64.328125 C 29.691406 -59.117188 28.265625 -53.09375 28.265625 -46.25 C 28.265625 -39.300781 29.691406 -33.21875 32.546875 -28 C 35.410156 -22.789062 39.222656 -18.8125 43.984375 -16.0625 C 48.753906 -13.3125 53.941406 -11.9375 59.546875 -11.9375 C 65.265625 -11.9375 70.503906 -13.3125 75.265625 -16.0625 C 80.035156 -18.8125 83.820312 -22.789062 86.625 -28 C 89.425781 -33.21875 90.828125 -39.359375 90.828125 -46.421875 Z M 90.828125 -46.421875 "/></g></g></g><g fill="#d05270" fill-opacity="1"><g transform="translate(679.805687, 234.926949)"><g><path d="M 71.65625 -60.390625 C 75.914062 -59.710938 79.8125 -57.972656 83.34375 -55.171875 C 86.875 -52.367188 89.675781 -48.890625 91.75 -44.734375 C 93.820312 -40.585938 94.859375 -36.160156 94.859375 -31.453125 C 94.859375 -25.515625 93.34375 -20.160156 90.3125 -15.390625 C 87.289062 -10.617188 82.890625 -6.859375 77.109375 -4.109375 C 71.335938 -1.367188 64.53125 0 56.6875 0 L 12.953125 0 L 12.953125 -117.234375 L 55 -117.234375 C 62.957031 -117.234375 69.738281 -115.914062 75.34375 -113.28125 C 80.957031 -110.644531 85.164062 -107.082031 87.96875 -102.59375 C 90.769531 -98.113281 92.171875 -93.070312 92.171875 -87.46875 C 92.171875 -80.507812 90.289062 -74.757812 86.53125 -70.21875 C 82.78125 -65.675781 77.820312 -62.398438 71.65625 -60.390625 Z M 28.265625 -66.609375 L 54 -66.609375 C 61.175781 -66.609375 66.722656 -68.289062 70.640625 -71.65625 C 74.566406 -75.019531 76.53125 -79.671875 76.53125 -85.609375 C 76.53125 -91.554688 74.566406 -96.210938 70.640625 -99.578125 C 66.722656 -102.941406 61.0625 -104.625 53.65625 -104.625 L 28.265625 -104.625 Z M 55.34375 -12.609375 C 62.96875 -12.609375 68.910156 -14.398438 73.171875 -17.984375 C 77.429688 -21.578125 79.5625 -26.570312 79.5625 -32.96875 C 79.5625 -39.46875 77.316406 -44.597656 72.828125 -48.359375 C 68.347656 -52.117188 62.347656 -54 54.828125 -54 L 28.265625 -54 L 28.265625 -12.609375 Z M 55.34375 -12.609375 "/></g></g></g><g fill="#d05270" fill-opacity="1"><g transform="translate(793.175223, 234.926949)"><g><path d="M 94.703125 -92.171875 L 94.703125 0 L 79.390625 0 L 79.390625 -13.625 C 76.472656 -8.914062 72.40625 -5.242188 67.1875 -2.609375 C 61.976562 0.0234375 56.234375 1.34375 49.953125 1.34375 C 42.773438 1.34375 36.328125 -0.140625 30.609375 -3.109375 C 24.890625 -6.078125 20.375 -10.535156 17.0625 -16.484375 C 13.757812 -22.429688 12.109375 -29.664062 12.109375 -38.1875 L 12.109375 -92.171875 L 27.25 -92.171875 L 27.25 -40.203125 C 27.25 -31.117188 29.546875 -24.132812 34.140625 -19.25 C 38.742188 -14.375 45.023438 -11.9375 52.984375 -11.9375 C 61.171875 -11.9375 67.617188 -14.457031 72.328125 -19.5 C 77.035156 -24.550781 79.390625 -31.898438 79.390625 -41.546875 L 79.390625 -92.171875 Z M 94.703125 -92.171875 "/></g></g></g><g fill="#d05270" fill-opacity="1"><g transform="translate(911.086171, 234.926949)"><g><path d="M 24.390625 -12.609375 L 69.640625 -12.609375 L 69.640625 0 L 6.890625 0 L 6.890625 -12.609375 L 51.640625 -79.734375 L 7.234375 -79.734375 L 7.234375 -92.171875 L 69.296875 -92.171875 L 69.296875 -79.734375 Z M 24.390625 -12.609375 "/></g></g></g><g fill="#d05270" fill-opacity="1"><g transform="translate(997.880048, 234.926949)"><g><path d="M 24.390625 -12.609375 L 69.640625 -12.609375 L 69.640625 0 L 6.890625 0 L 6.890625 -12.609375 L 51.640625 -79.734375 L 7.234375 -79.734375 L 7.234375 -92.171875 L 69.296875 -92.171875 L 69.296875 -79.734375 Z M 24.390625 -12.609375 "/></g></g></g><path stroke-linecap="butt" transform="matrix(-0.749829, -0.000206619, 0.000206666, -0.75, 1112.844084, 70.888435)" fill="none" stroke-linejoin="miter" d="M -0.00159328 11.502291 L 961.222498 11.497898 " stroke="#424242" stroke-width="23" stroke-opacity="1" stroke-miterlimit="4"/><path stroke-linecap="butt" transform="matrix(0.000000000000000045, -0.740533, 0.75, 0.000000000000000046, 577.638384, 312.933524)" fill="none" stroke-linejoin="miter" d="M -0.0000938504 11.497781 L 33.427057 11.497781 " stroke="#424242" stroke-width="23" stroke-opacity="1" stroke-miterlimit="4"/><path stroke-linecap="butt" transform="matrix(-0.750195, 0.0014758, -0.00147541, -0.749999, 1112.848308, 320.507)" fill="none" stroke-linejoin="miter" d="M -0.000917757 11.498937 L 713.813028 11.502491 " stroke="#424242" stroke-width="23" stroke-opacity="1" stroke-miterlimit="4"/><g fill="#d05270" fill-opacity="1"><g transform="translate(127.510019, 272.486281)"><g><path d="M 29.515625 -19.953125 L 23.328125 0 L 18.984375 0 L 14.953125 -14.734375 L 10.9375 0 L 6.59375 0 L 0.359375 -19.953125 L 4.5625 -19.953125 L 8.734375 -3.90625 L 12.96875 -19.953125 L 17.28125 -19.953125 L 21.328125 -3.984375 L 25.46875 -19.953125 Z M 29.515625 -19.953125 "/></g></g></g><g fill="#d05270" fill-opacity="1"><g transform="translate(157.384731, 272.486281)"><g><path d="M 13.03125 -20.28125 C 14.5625 -20.28125 15.921875 -19.953125 17.109375 -19.296875 C 18.304688 -18.648438 19.25 -17.6875 19.9375 -16.40625 C 20.625 -15.125 20.96875 -13.578125 20.96875 -11.765625 L 20.96875 0 L 16.875 0 L 16.875 -11.15625 C 16.875 -12.9375 16.425781 -14.304688 15.53125 -15.265625 C 14.644531 -16.222656 13.425781 -16.703125 11.875 -16.703125 C 10.332031 -16.703125 9.109375 -16.222656 8.203125 -15.265625 C 7.296875 -14.304688 6.84375 -12.9375 6.84375 -11.15625 L 6.84375 0 L 2.71875 0 L 2.71875 -26.796875 L 6.84375 -26.796875 L 6.84375 -17.640625 C 7.539062 -18.484375 8.425781 -19.132812 9.5 -19.59375 C 10.582031 -20.050781 11.757812 -20.28125 13.03125 -20.28125 Z M 13.03125 -20.28125 "/></g></g></g><g fill="#d05270" fill-opacity="1"><g transform="translate(180.886171, 272.486281)"><g><path d="M 21 -10.46875 C 21 -9.71875 20.953125 -9.039062 20.859375 -8.4375 L 5.609375 -8.4375 C 5.734375 -6.84375 6.328125 -5.5625 7.390625 -4.59375 C 8.453125 -3.632812 9.753906 -3.15625 11.296875 -3.15625 C 13.515625 -3.15625 15.085938 -4.082031 16.015625 -5.9375 L 20.46875 -5.9375 C 19.863281 -4.101562 18.769531 -2.597656 17.1875 -1.421875 C 15.601562 -0.253906 13.640625 0.328125 11.296875 0.328125 C 9.390625 0.328125 7.679688 -0.0976562 6.171875 -0.953125 C 4.660156 -1.816406 3.476562 -3.023438 2.625 -4.578125 C 1.769531 -6.140625 1.34375 -7.945312 1.34375 -10 C 1.34375 -12.050781 1.757812 -13.851562 2.59375 -15.40625 C 3.425781 -16.96875 4.59375 -18.171875 6.09375 -19.015625 C 7.601562 -19.859375 9.335938 -20.28125 11.296875 -20.28125 C 13.179688 -20.28125 14.859375 -19.867188 16.328125 -19.046875 C 17.804688 -18.222656 18.953125 -17.066406 19.765625 -15.578125 C 20.585938 -14.097656 21 -12.394531 21 -10.46875 Z M 16.703125 -11.765625 C 16.671875 -13.285156 16.125 -14.503906 15.0625 -15.421875 C 14 -16.347656 12.6875 -16.8125 11.125 -16.8125 C 9.695312 -16.8125 8.472656 -16.359375 7.453125 -15.453125 C 6.441406 -14.546875 5.84375 -13.316406 5.65625 -11.765625 Z M 16.703125 -11.765625 "/></g></g></g><g fill="#d05270" fill-opacity="1"><g transform="translate(203.228834, 272.486281)"><g><path d="M 6.84375 -17.0625 C 7.445312 -18.070312 8.25 -18.859375 9.25 -19.421875 C 10.25 -19.992188 11.441406 -20.28125 12.828125 -20.28125 L 12.828125 -16.015625 L 11.765625 -16.015625 C 10.148438 -16.015625 8.925781 -15.601562 8.09375 -14.78125 C 7.257812 -13.957031 6.84375 -12.53125 6.84375 -10.5 L 6.84375 0 L 2.71875 0 L 2.71875 -19.953125 L 6.84375 -19.953125 Z M 6.84375 -17.0625 "/></g></g></g><g fill="#d05270" fill-opacity="1"><g transform="translate(217.134153, 272.486281)"><g><path d="M 21 -10.46875 C 21 -9.71875 20.953125 -9.039062 20.859375 -8.4375 L 5.609375 -8.4375 C 5.734375 -6.84375 6.328125 -5.5625 7.390625 -4.59375 C 8.453125 -3.632812 9.753906 -3.15625 11.296875 -3.15625 C 13.515625 -3.15625 15.085938 -4.082031 16.015625 -5.9375 L 20.46875 -5.9375 C 19.863281 -4.101562 18.769531 -2.597656 17.1875 -1.421875 C 15.601562 -0.253906 13.640625 0.328125 11.296875 0.328125 C 9.390625 0.328125 7.679688 -0.0976562 6.171875 -0.953125 C 4.660156 -1.816406 3.476562 -3.023438 2.625 -4.578125 C 1.769531 -6.140625 1.34375 -7.945312 1.34375 -10 C 1.34375 -12.050781 1.757812 -13.851562 2.59375 -15.40625 C 3.425781 -16.96875 4.59375 -18.171875 6.09375 -19.015625 C 7.601562 -19.859375 9.335938 -20.28125 11.296875 -20.28125 C 13.179688 -20.28125 14.859375 -19.867188 16.328125 -19.046875 C 17.804688 -18.222656 18.953125 -17.066406 19.765625 -15.578125 C 20.585938 -14.097656 21 -12.394531 21 -10.46875 Z M 16.703125 -11.765625 C 16.671875 -13.285156 16.125 -14.503906 15.0625 -15.421875 C 14 -16.347656 12.6875 -16.8125 11.125 -16.8125 C 9.695312 -16.8125 8.472656 -16.359375 7.453125 -15.453125 C 6.441406 -14.546875 5.84375 -13.316406 5.65625 -11.765625 Z M 16.703125 -11.765625 "/></g></g></g><g fill="#d05270" fill-opacity="1"><g transform="translate(239.476817, 272.486281)"><g/></g></g><g fill="#d05270" fill-opacity="1"><g transform="translate(248.891888, 272.486281)"><g><path d="M 4.8125 -22.59375 C 4.0625 -22.59375 3.429688 -22.847656 2.921875 -23.359375 C 2.421875 -23.867188 2.171875 -24.5 2.171875 -25.25 C 2.171875 -25.988281 2.421875 -26.613281 2.921875 -27.125 C 3.429688 -27.632812 4.0625 -27.890625 4.8125 -27.890625 C 5.539062 -27.890625 6.15625 -27.632812 6.65625 -27.125 C 7.164062 -26.613281 7.421875 -25.988281 7.421875 -25.25 C 7.421875 -24.5 7.164062 -23.867188 6.65625 -23.359375 C 6.15625 -22.847656 5.539062 -22.59375 4.8125 -22.59375 Z M 6.84375 -19.953125 L 6.84375 0 L 2.71875 0 L 2.71875 -19.953125 Z M 6.84375 -19.953125 "/></g></g></g><g fill="#d05270" fill-opacity="1"><g transform="translate(258.451818, 272.486281)"><g><path d="M 1.34375 -10.0625 C 1.34375 -12.070312 1.757812 -13.847656 2.59375 -15.390625 C 3.425781 -16.929688 4.5625 -18.128906 6 -18.984375 C 7.4375 -19.847656 9.035156 -20.28125 10.796875 -20.28125 C 12.097656 -20.28125 13.378906 -19.992188 14.640625 -19.421875 C 15.910156 -18.859375 16.921875 -18.109375 17.671875 -17.171875 L 17.671875 -26.796875 L 21.84375 -26.796875 L 21.84375 0 L 17.671875 0 L 17.671875 -3 C 16.992188 -2.039062 16.054688 -1.242188 14.859375 -0.609375 C 13.671875 0.015625 12.300781 0.328125 10.75 0.328125 C 9.019531 0.328125 7.4375 -0.109375 6 -0.984375 C 4.5625 -1.867188 3.425781 -3.101562 2.59375 -4.6875 C 1.757812 -6.269531 1.34375 -8.0625 1.34375 -10.0625 Z M 17.671875 -10 C 17.671875 -11.375 17.382812 -12.566406 16.8125 -13.578125 C 16.25 -14.597656 15.507812 -15.375 14.59375 -15.90625 C 13.675781 -16.4375 12.6875 -16.703125 11.625 -16.703125 C 10.5625 -16.703125 9.570312 -16.441406 8.65625 -15.921875 C 7.738281 -15.398438 6.992188 -14.640625 6.421875 -13.640625 C 5.859375 -12.640625 5.578125 -11.445312 5.578125 -10.0625 C 5.578125 -8.6875 5.859375 -7.476562 6.421875 -6.4375 C 6.992188 -5.40625 7.742188 -4.617188 8.671875 -4.078125 C 9.597656 -3.535156 10.582031 -3.265625 11.625 -3.265625 C 12.6875 -3.265625 13.675781 -3.53125 14.59375 -4.0625 C 15.507812 -4.59375 16.25 -5.367188 16.8125 -6.390625 C 17.382812 -7.421875 17.671875 -8.625 17.671875 -10 Z M 17.671875 -10 "/></g></g></g><g fill="#d05270" fill-opacity="1"><g transform="translate(283.003413, 272.486281)"><g><path d="M 21 -10.46875 C 21 -9.71875 20.953125 -9.039062 20.859375 -8.4375 L 5.609375 -8.4375 C 5.734375 -6.84375 6.328125 -5.5625 7.390625 -4.59375 C 8.453125 -3.632812 9.753906 -3.15625 11.296875 -3.15625 C 13.515625 -3.15625 15.085938 -4.082031 16.015625 -5.9375 L 20.46875 -5.9375 C 19.863281 -4.101562 18.769531 -2.597656 17.1875 -1.421875 C 15.601562 -0.253906 13.640625 0.328125 11.296875 0.328125 C 9.390625 0.328125 7.679688 -0.0976562 6.171875 -0.953125 C 4.660156 -1.816406 3.476562 -3.023438 2.625 -4.578125 C 1.769531 -6.140625 1.34375 -7.945312 1.34375 -10 C 1.34375 -12.050781 1.757812 -13.851562 2.59375 -15.40625 C 3.425781 -16.96875 4.59375 -18.171875 6.09375 -19.015625 C 7.601562 -19.859375 9.335938 -20.28125 11.296875 -20.28125 C 13.179688 -20.28125 14.859375 -19.867188 16.328125 -19.046875 C 17.804688 -18.222656 18.953125 -17.066406 19.765625 -15.578125 C 20.585938 -14.097656 21 -12.394531 21 -10.46875 Z M 16.703125 -11.765625 C 16.671875 -13.285156 16.125 -14.503906 15.0625 -15.421875 C 14 -16.347656 12.6875 -16.8125 11.125 -16.8125 C 9.695312 -16.8125 8.472656 -16.359375 7.453125 -15.453125 C 6.441406 -14.546875 5.84375 -13.316406 5.65625 -11.765625 Z M 16.703125 -11.765625 "/></g></g></g><g fill="#d05270" fill-opacity="1"><g transform="translate(305.346077, 272.486281)"><g><path d="M 1.34375 -10.0625 C 1.34375 -12.070312 1.757812 -13.847656 2.59375 -15.390625 C 3.425781 -16.929688 4.5625 -18.128906 6 -18.984375 C 7.4375 -19.847656 9.019531 -20.28125 10.75 -20.28125 C 12.320312 -20.28125 13.691406 -19.972656 14.859375 -19.359375 C 16.035156 -18.742188 16.972656 -17.976562 17.671875 -17.0625 L 17.671875 -19.953125 L 21.84375 -19.953125 L 21.84375 0 L 17.671875 0 L 17.671875 -2.96875 C 16.972656 -2.03125 16.019531 -1.242188 14.8125 -0.609375 C 13.601562 0.015625 12.226562 0.328125 10.6875 0.328125 C 8.96875 0.328125 7.394531 -0.109375 5.96875 -0.984375 C 4.550781 -1.867188 3.425781 -3.101562 2.59375 -4.6875 C 1.757812 -6.269531 1.34375 -8.0625 1.34375 -10.0625 Z M 17.671875 -10 C 17.671875 -11.375 17.382812 -12.566406 16.8125 -13.578125 C 16.25 -14.597656 15.507812 -15.375 14.59375 -15.90625 C 13.675781 -16.4375 12.6875 -16.703125 11.625 -16.703125 C 10.5625 -16.703125 9.570312 -16.441406 8.65625 -15.921875 C 7.738281 -15.398438 6.992188 -14.640625 6.421875 -13.640625 C 5.859375 -12.640625 5.578125 -11.445312 5.578125 -10.0625 C 5.578125 -8.6875 5.859375 -7.476562 6.421875 -6.4375 C 6.992188 -5.40625 7.742188 -4.617188 8.671875 -4.078125 C 9.597656 -3.535156 10.582031 -3.265625 11.625 -3.265625 C 12.6875 -3.265625 13.675781 -3.53125 14.59375 -4.0625 C 15.507812 -4.59375 16.25 -5.367188 16.8125 -6.390625 C 17.382812 -7.421875 17.671875 -8.625 17.671875 -10 Z M 17.671875 -10 "/></g></g></g><g fill="#d05270" fill-opacity="1"><g transform="translate(329.897673, 272.486281)"><g><path d="M 9.953125 0.328125 C 8.390625 0.328125 6.984375 0.046875 5.734375 -0.515625 C 4.492188 -1.085938 3.507812 -1.863281 2.78125 -2.84375 C 2.0625 -3.820312 1.675781 -4.914062 1.625 -6.125 L 5.90625 -6.125 C 5.976562 -5.28125 6.378906 -4.570312 7.109375 -4 C 7.847656 -3.4375 8.773438 -3.15625 9.890625 -3.15625 C 11.046875 -3.15625 11.941406 -3.375 12.578125 -3.8125 C 13.222656 -4.257812 13.546875 -4.835938 13.546875 -5.546875 C 13.546875 -6.296875 13.1875 -6.847656 12.46875 -7.203125 C 11.757812 -7.566406 10.632812 -7.96875 9.09375 -8.40625 C 7.59375 -8.8125 6.367188 -9.207031 5.421875 -9.59375 C 4.484375 -9.976562 3.671875 -10.566406 2.984375 -11.359375 C 2.296875 -12.160156 1.953125 -13.21875 1.953125 -14.53125 C 1.953125 -15.59375 2.265625 -16.5625 2.890625 -17.4375 C 3.523438 -18.320312 4.425781 -19.015625 5.59375 -19.515625 C 6.769531 -20.023438 8.117188 -20.28125 9.640625 -20.28125 C 11.898438 -20.28125 13.722656 -19.707031 15.109375 -18.5625 C 16.503906 -17.414062 17.25 -15.851562 17.34375 -13.875 L 13.21875 -13.875 C 13.144531 -14.769531 12.78125 -15.484375 12.125 -16.015625 C 11.476562 -16.546875 10.597656 -16.8125 9.484375 -16.8125 C 8.398438 -16.8125 7.566406 -16.601562 6.984375 -16.1875 C 6.410156 -15.78125 6.125 -15.238281 6.125 -14.5625 C 6.125 -14.03125 6.316406 -13.582031 6.703125 -13.21875 C 7.085938 -12.851562 7.554688 -12.566406 8.109375 -12.359375 C 8.671875 -12.160156 9.492188 -11.90625 10.578125 -11.59375 C 12.023438 -11.207031 13.210938 -10.8125 14.140625 -10.40625 C 15.066406 -10.007812 15.867188 -9.425781 16.546875 -8.65625 C 17.222656 -7.882812 17.578125 -6.859375 17.609375 -5.578125 C 17.609375 -4.441406 17.289062 -3.425781 16.65625 -2.53125 C 16.03125 -1.632812 15.144531 -0.929688 14 -0.421875 C 12.851562 0.078125 11.503906 0.328125 9.953125 0.328125 Z M 9.953125 0.328125 "/></g></g></g><g fill="#d05270" fill-opacity="1"><g transform="translate(349.234774, 272.486281)"><g/></g></g><g fill="#d05270" fill-opacity="1"><g transform="translate(358.649845, 272.486281)"><g><path d="M 1.34375 -10 C 1.34375 -12.050781 1.757812 -13.851562 2.59375 -15.40625 C 3.425781 -16.96875 4.578125 -18.171875 6.046875 -19.015625 C 7.523438 -19.859375 9.21875 -20.28125 11.125 -20.28125 C 13.53125 -20.28125 15.523438 -19.707031 17.109375 -18.5625 C 18.691406 -17.414062 19.757812 -15.78125 20.3125 -13.65625 L 15.859375 -13.65625 C 15.503906 -14.644531 14.925781 -15.414062 14.125 -15.96875 C 13.332031 -16.53125 12.332031 -16.8125 11.125 -16.8125 C 9.425781 -16.8125 8.078125 -16.210938 7.078125 -15.015625 C 6.078125 -13.816406 5.578125 -12.144531 5.578125 -10 C 5.578125 -7.84375 6.078125 -6.160156 7.078125 -4.953125 C 8.078125 -3.753906 9.425781 -3.15625 11.125 -3.15625 C 13.507812 -3.15625 15.085938 -4.203125 15.859375 -6.296875 L 20.3125 -6.296875 C 19.738281 -4.273438 18.65625 -2.664062 17.0625 -1.46875 C 15.46875 -0.269531 13.488281 0.328125 11.125 0.328125 C 9.21875 0.328125 7.523438 -0.0976562 6.046875 -0.953125 C 4.578125 -1.816406 3.425781 -3.023438 2.59375 -4.578125 C 1.757812 -6.140625 1.34375 -7.945312 1.34375 -10 Z M 1.34375 -10 "/></g></g></g><g fill="#d05270" fill-opacity="1"><g transform="translate(380.376929, 272.486281)"><g><path d="M 11.375 0.328125 C 9.488281 0.328125 7.785156 -0.0976562 6.265625 -0.953125 C 4.742188 -1.816406 3.546875 -3.023438 2.671875 -4.578125 C 1.804688 -6.140625 1.375 -7.945312 1.375 -10 C 1.375 -12.019531 1.820312 -13.816406 2.71875 -15.390625 C 3.613281 -16.960938 4.832031 -18.171875 6.375 -19.015625 C 7.914062 -19.859375 9.640625 -20.28125 11.546875 -20.28125 C 13.460938 -20.28125 15.191406 -19.859375 16.734375 -19.015625 C 18.273438 -18.171875 19.492188 -16.960938 20.390625 -15.390625 C 21.285156 -13.816406 21.734375 -12.019531 21.734375 -10 C 21.734375 -7.96875 21.273438 -6.164062 20.359375 -4.59375 C 19.441406 -3.03125 18.191406 -1.816406 16.609375 -0.953125 C 15.023438 -0.0976562 13.28125 0.328125 11.375 0.328125 Z M 11.375 -3.265625 C 12.4375 -3.265625 13.429688 -3.515625 14.359375 -4.015625 C 15.285156 -4.523438 16.039062 -5.285156 16.625 -6.296875 C 17.207031 -7.316406 17.5 -8.550781 17.5 -10 C 17.5 -11.445312 17.21875 -12.671875 16.65625 -13.671875 C 16.101562 -14.671875 15.367188 -15.425781 14.453125 -15.9375 C 13.535156 -16.445312 12.546875 -16.703125 11.484375 -16.703125 C 10.421875 -16.703125 9.4375 -16.445312 8.53125 -15.9375 C 7.625 -15.425781 6.90625 -14.671875 6.375 -13.671875 C 5.84375 -12.671875 5.578125 -11.445312 5.578125 -10 C 5.578125 -7.84375 6.125 -6.179688 7.21875 -5.015625 C 8.320312 -3.847656 9.707031 -3.265625 11.375 -3.265625 Z M 11.375 -3.265625 "/></g></g></g><g fill="#d05270" fill-opacity="1"><g transform="translate(403.480031, 272.486281)"><g><path d="M 26.875 -20.28125 C 28.445312 -20.28125 29.851562 -19.953125 31.09375 -19.296875 C 32.332031 -18.648438 33.304688 -17.6875 34.015625 -16.40625 C 34.734375 -15.125 35.09375 -13.578125 35.09375 -11.765625 L 35.09375 0 L 31 0 L 31 -11.15625 C 31 -12.9375 30.550781 -14.304688 29.65625 -15.265625 C 28.769531 -16.222656 27.550781 -16.703125 26 -16.703125 C 24.457031 -16.703125 23.234375 -16.222656 22.328125 -15.265625 C 21.421875 -14.304688 20.96875 -12.9375 20.96875 -11.15625 L 20.96875 0 L 16.875 0 L 16.875 -11.15625 C 16.875 -12.9375 16.425781 -14.304688 15.53125 -15.265625 C 14.644531 -16.222656 13.425781 -16.703125 11.875 -16.703125 C 10.332031 -16.703125 9.109375 -16.222656 8.203125 -15.265625 C 7.296875 -14.304688 6.84375 -12.9375 6.84375 -11.15625 L 6.84375 0 L 2.71875 0 L 2.71875 -19.953125 L 6.84375 -19.953125 L 6.84375 -17.671875 C 7.519531 -18.492188 8.375 -19.132812 9.40625 -19.59375 C 10.445312 -20.050781 11.5625 -20.28125 12.75 -20.28125 C 14.34375 -20.28125 15.765625 -19.941406 17.015625 -19.265625 C 18.273438 -18.585938 19.242188 -17.609375 19.921875 -16.328125 C 20.523438 -17.535156 21.46875 -18.492188 22.75 -19.203125 C 24.03125 -19.921875 25.40625 -20.28125 26.875 -20.28125 Z M 26.875 -20.28125 "/></g></g></g><g fill="#d05270" fill-opacity="1"><g transform="translate(441.104078, 272.486281)"><g><path d="M 21 -10.46875 C 21 -9.71875 20.953125 -9.039062 20.859375 -8.4375 L 5.609375 -8.4375 C 5.734375 -6.84375 6.328125 -5.5625 7.390625 -4.59375 C 8.453125 -3.632812 9.753906 -3.15625 11.296875 -3.15625 C 13.515625 -3.15625 15.085938 -4.082031 16.015625 -5.9375 L 20.46875 -5.9375 C 19.863281 -4.101562 18.769531 -2.597656 17.1875 -1.421875 C 15.601562 -0.253906 13.640625 0.328125 11.296875 0.328125 C 9.390625 0.328125 7.679688 -0.0976562 6.171875 -0.953125 C 4.660156 -1.816406 3.476562 -3.023438 2.625 -4.578125 C 1.769531 -6.140625 1.34375 -7.945312 1.34375 -10 C 1.34375 -12.050781 1.757812 -13.851562 2.59375 -15.40625 C 3.425781 -16.96875 4.59375 -18.171875 6.09375 -19.015625 C 7.601562 -19.859375 9.335938 -20.28125 11.296875 -20.28125 C 13.179688 -20.28125 14.859375 -19.867188 16.328125 -19.046875 C 17.804688 -18.222656 18.953125 -17.066406 19.765625 -15.578125 C 20.585938 -14.097656 21 -12.394531 21 -10.46875 Z M 16.703125 -11.765625 C 16.671875 -13.285156 16.125 -14.503906 15.0625 -15.421875 C 14 -16.347656 12.6875 -16.8125 11.125 -16.8125 C 9.695312 -16.8125 8.472656 -16.359375 7.453125 -15.453125 C 6.441406 -14.546875 5.84375 -13.316406 5.65625 -11.765625 Z M 16.703125 -11.765625 "/></g></g></g><g fill="#d05270" fill-opacity="1"><g transform="translate(463.446741, 272.486281)"><g/></g></g><g fill="#d05270" fill-opacity="1"><g transform="translate(472.861812, 272.486281)"><g><path d="M 7.53125 -16.59375 L 7.53125 -5.546875 C 7.53125 -4.796875 7.703125 -4.253906 8.046875 -3.921875 C 8.398438 -3.597656 9 -3.4375 9.84375 -3.4375 L 12.390625 -3.4375 L 12.390625 0 L 9.125 0 C 7.269531 0 5.847656 -0.429688 4.859375 -1.296875 C 3.867188 -2.171875 3.375 -3.585938 3.375 -5.546875 L 3.375 -16.59375 L 1.015625 -16.59375 L 1.015625 -19.953125 L 3.375 -19.953125 L 3.375 -24.921875 L 7.53125 -24.921875 L 7.53125 -19.953125 L 12.390625 -19.953125 L 12.390625 -16.59375 Z M 7.53125 -16.59375 "/></g></g></g><g fill="#d05270" fill-opacity="1"><g transform="translate(486.332601, 272.486281)"><g><path d="M 11.375 0.328125 C 9.488281 0.328125 7.785156 -0.0976562 6.265625 -0.953125 C 4.742188 -1.816406 3.546875 -3.023438 2.671875 -4.578125 C 1.804688 -6.140625 1.375 -7.945312 1.375 -10 C 1.375 -12.019531 1.820312 -13.816406 2.71875 -15.390625 C 3.613281 -16.960938 4.832031 -18.171875 6.375 -19.015625 C 7.914062 -19.859375 9.640625 -20.28125 11.546875 -20.28125 C 13.460938 -20.28125 15.191406 -19.859375 16.734375 -19.015625 C 18.273438 -18.171875 19.492188 -16.960938 20.390625 -15.390625 C 21.285156 -13.816406 21.734375 -12.019531 21.734375 -10 C 21.734375 -7.96875 21.273438 -6.164062 20.359375 -4.59375 C 19.441406 -3.03125 18.191406 -1.816406 16.609375 -0.953125 C 15.023438 -0.0976562 13.28125 0.328125 11.375 0.328125 Z M 11.375 -3.265625 C 12.4375 -3.265625 13.429688 -3.515625 14.359375 -4.015625 C 15.285156 -4.523438 16.039062 -5.285156 16.625 -6.296875 C 17.207031 -7.316406 17.5 -8.550781 17.5 -10 C 17.5 -11.445312 17.21875 -12.671875 16.65625 -13.671875 C 16.101562 -14.671875 15.367188 -15.425781 14.453125 -15.9375 C 13.535156 -16.445312 12.546875 -16.703125 11.484375 -16.703125 C 10.421875 -16.703125 9.4375 -16.445312 8.53125 -15.9375 C 7.625 -15.425781 6.90625 -14.671875 6.375 -13.671875 C 5.84375 -12.671875 5.578125 -11.445312 5.578125 -10 C 5.578125 -7.84375 6.125 -6.179688 7.21875 -5.015625 C 8.320312 -3.847656 9.707031 -3.265625 11.375 -3.265625 Z M 11.375 -3.265625 "/></g></g></g><g fill="#d05270" fill-opacity="1"><g transform="translate(509.435704, 272.486281)"><g/></g></g><g fill="#d05270" fill-opacity="1"><g transform="translate(518.850775, 272.486281)"><g><path d="M 6.84375 -26.796875 L 6.84375 0 L 2.71875 0 L 2.71875 -26.796875 Z M 6.84375 -26.796875 "/></g></g></g><g fill="#d05270" fill-opacity="1"><g transform="translate(528.410704, 272.486281)"><g><path d="M 4.8125 -22.59375 C 4.0625 -22.59375 3.429688 -22.847656 2.921875 -23.359375 C 2.421875 -23.867188 2.171875 -24.5 2.171875 -25.25 C 2.171875 -25.988281 2.421875 -26.613281 2.921875 -27.125 C 3.429688 -27.632812 4.0625 -27.890625 4.8125 -27.890625 C 5.539062 -27.890625 6.15625 -27.632812 6.65625 -27.125 C 7.164062 -26.613281 7.421875 -25.988281 7.421875 -25.25 C 7.421875 -24.5 7.164062 -23.867188 6.65625 -23.359375 C 6.15625 -22.847656 5.539062 -22.59375 4.8125 -22.59375 Z M 6.84375 -19.953125 L 6.84375 0 L 2.71875 0 L 2.71875 -19.953125 Z M 6.84375 -19.953125 "/></g></g></g><g fill="#d05270" fill-opacity="1"><g transform="translate(537.970634, 272.486281)"><g><path d="M 11.078125 -16.59375 L 7.390625 -16.59375 L 7.390625 0 L 3.21875 0 L 3.21875 -16.59375 L 0.875 -16.59375 L 0.875 -19.953125 L 3.21875 -19.953125 L 3.21875 -21.375 C 3.21875 -23.664062 3.828125 -25.332031 5.046875 -26.375 C 6.265625 -27.425781 8.179688 -27.953125 10.796875 -27.953125 L 10.796875 -24.515625 C 9.535156 -24.515625 8.648438 -24.28125 8.140625 -23.8125 C 7.640625 -23.34375 7.390625 -22.53125 7.390625 -21.375 L 7.390625 -19.953125 L 11.078125 -19.953125 Z M 11.078125 -16.59375 "/></g></g></g><g fill="#d05270" fill-opacity="1"><g transform="translate(549.992929, 272.486281)"><g><path d="M 21 -10.46875 C 21 -9.71875 20.953125 -9.039062 20.859375 -8.4375 L 5.609375 -8.4375 C 5.734375 -6.84375 6.328125 -5.5625 7.390625 -4.59375 C 8.453125 -3.632812 9.753906 -3.15625 11.296875 -3.15625 C 13.515625 -3.15625 15.085938 -4.082031 16.015625 -5.9375 L 20.46875 -5.9375 C 19.863281 -4.101562 18.769531 -2.597656 17.1875 -1.421875 C 15.601562 -0.253906 13.640625 0.328125 11.296875 0.328125 C 9.390625 0.328125 7.679688 -0.0976562 6.171875 -0.953125 C 4.660156 -1.816406 3.476562 -3.023438 2.625 -4.578125 C 1.769531 -6.140625 1.34375 -7.945312 1.34375 -10 C 1.34375 -12.050781 1.757812 -13.851562 2.59375 -15.40625 C 3.425781 -16.96875 4.59375 -18.171875 6.09375 -19.015625 C 7.601562 -19.859375 9.335938 -20.28125 11.296875 -20.28125 C 13.179688 -20.28125 14.859375 -19.867188 16.328125 -19.046875 C 17.804688 -18.222656 18.953125 -17.066406 19.765625 -15.578125 C 20.585938 -14.097656 21 -12.394531 21 -10.46875 Z M 16.703125 -11.765625 C 16.671875 -13.285156 16.125 -14.503906 15.0625 -15.421875 C 14 -16.347656 12.6875 -16.8125 11.125 -16.8125 C 9.695312 -16.8125 8.472656 -16.359375 7.453125 -15.453125 C 6.441406 -14.546875 5.84375 -13.316406 5.65625 -11.765625 Z M 16.703125 -11.765625 "/></g></g></g><path stroke-linecap="butt" transform="matrix(0.000000000000000046, -0.753289, 0.75, 0.000000000000000046, 392.279109, 112.946652)" fill="none" stroke-linejoin="miter" d="M 0.00177791 11.497647 L 67.715276 11.497647 " stroke="#424242" stroke-width="23" stroke-opacity="1" stroke-miterlimit="4"/><path stroke-linecap="butt" transform="matrix(-0.000000000000001286, -0.749531, 0.75, -0.000000000000001286, 1095.42827, 319.094129)" fill="none" stroke-linejoin="miter" d="M 0.000506244 11.501891 L 350.234913 11.501891 " stroke="#424242" stroke-width="23" stroke-opacity="1" stroke-miterlimit="4"/></svg>